D:\school\WTK\thesis\model\3dpredictsim\Results\debug_batch\Pog_s1_tmt_aCst_d05_k1000_ig24_pas_GRF.mot
nRows=20
nColumns=19

name D:\school\WTK\thesis\model\3dpredictsim\Results\debug_batch\Pog_s1_tmt_aCst_d05_k1000_ig24_pas_GRF.mot
datacolumns 19
datarows 20
range 0.0000000000 0.2105731048
endheader
time 	ground_force_vx	ground_force_vy	ground_force_vz	ground_force_px	ground_force_py	ground_force_pz	1_ground_force_vx	1_ground_force_vy	1_ground_force_vz	1_ground_force_px	1_ground_force_py	1_ground_force_pz	ground_torque_x	ground_torque_y	ground_torque_z	1_ground_torque_x	1_ground_torque_y	1_ground_torque_z
        0.0000000000	     -102.1618543495	       93.8803556027	       41.8913375576	        0.1664195829	        0.0000000000	        0.0377466192	       94.7254631236	      471.8542563884	       -5.4785626413	       -0.3219481483	        0.0000000000	       -0.0349955352	        0.0000000000	        0.0000000000	        0.0000000000	        0.0000000000	        0.0000000000	        0.0000000000	
        0.0110827950	      -92.1280048230	      196.1824125293	       73.6475264496	        0.1728908475	        0.0000000000	        0.0360162856	       76.0440303429	      389.3266292166	       -9.9138885980	       -0.3177703199	        0.0000000000	       -0.0336822509	        0.0000000000	        0.0000000000	        0.0000000000	        0.0000000000	        0.0000000000	        0.0000000000	
        0.0221655900	      -45.7925900084	      354.8999894548	       16.1050883165	        0.1771217856	        0.0000000000	        0.0344056193	       53.0290855099	      297.0755929245	       -7.4843613593	       -0.3110459272	        0.0000000000	       -0.0309732233	        0.0000000000	        0.0000000000	        0.0000000000	        0.0000000000	        0.0000000000	        0.0000000000	
        0.0332483850	      -52.9751338278	      527.9354517012	       -2.7389943802	        0.1832375775	        0.0000000000	        0.0356894446	       24.1486183807	      195.4942277252	       -6.2474955605	       -0.2983450807	        0.0000000000	       -0.0251473656	        0.0000000000	        0.0000000000	        0.0000000000	        0.0000000000	        0.0000000000	        0.0000000000	
        0.0443311800	      -86.4846539856	      703.6439605076	      -10.2047399571	        0.1911258325	        0.0000000000	        0.0380756408	        5.9388097161	      138.8638398193	      -10.6009323021	       -0.2870841716	        0.0000000000	       -0.0194037404	        0.0000000000	        0.0000000000	        0.0000000000	        0.0000000000	        0.0000000000	        0.0000000000	
        0.0554139749	     -106.4748970178	      806.0806736292	      -12.8665021488	        0.1964902508	        0.0000000000	        0.0395867201	        1.6225139443	      107.6804707501	      -11.5770829190	       -0.2868760398	        0.0000000000	       -0.0196061046	        0.0000000000	        0.0000000000	        0.0000000000	        0.0000000000	        0.0000000000	        0.0000000000	
        0.0664967699	     -109.6992329883	      839.6463663859	      -13.5872695180	        0.2002127292	        0.0000000000	        0.0404802123	       -2.3535419043	       70.3228114581	      -10.8353185026	       -0.2864159333	        0.0000000000	       -0.0196808186	        0.0000000000	        0.0000000000	        0.0000000000	        0.0000000000	        0.0000000000	        0.0000000000	
        0.0775795649	     -104.4671731794	      833.8192566632	      -13.6580418122	        0.2033568486	        0.0000000000	        0.0409950854	       -8.3320978832	       28.9571250029	       -5.7264533299	       -0.2867991051	        0.0000000000	       -0.0194827264	        0.0000000000	        0.0000000000	        0.0000000000	        0.0000000000	        0.0000000000	        0.0000000000	
        0.0886623599	      -95.3809532903	      815.6122194739	      -13.9344721985	        0.2066701137	        0.0000000000	        0.0412356584	        0.1087669207	       -0.1076985215	        0.0022191899	        0.0000000000	        0.0000000000	        0.0000000000	        0.0000000000	        0.0000000000	        0.0000000000	        0.0000000000	        0.0000000000	        0.0000000000	
        0.0997451549	      -83.4143817897	      786.7526879589	      -14.6455892246	        0.2101363530	        0.0000000000	        0.0413297458	        0.0002108953	       -0.0001714748	       -0.0000118661	        0.0000000000	        0.0000000000	        0.0000000000	        0.0000000000	        0.0000000000	        0.0000000000	        0.0000000000	        0.0000000000	        0.0000000000	
        0.1108279499	      -72.9514909756	      755.2777892047	      -15.0297533683	        0.2142995270	        0.0000000000	        0.0413122564	        0.0000961937	       -0.0000679750	       -0.0000071225	        0.0000000000	        0.0000000000	        0.0000000000	        0.0000000000	        0.0000000000	        0.0000000000	        0.0000000000	        0.0000000000	        0.0000000000	
        0.1219107449	      -63.4971714835	      724.5628077749	      -15.2717407805	        0.2188669665	        0.0000000000	        0.0411998388	        0.0009505902	       -0.0006021157	       -0.0000784807	        0.0000000000	        0.0000000000	        0.0000000000	        0.0000000000	        0.0000000000	        0.0000000000	        0.0000000000	        0.0000000000	        0.0000000000	
        0.1329935399	      -54.0480522572	      693.5735171024	      -15.8089283216	        0.2233434023	        0.0000000000	        0.0411149024	        0.0047554865	       -0.0027616919	       -0.0004163530	        0.0000000000	        0.0000000000	        0.0000000000	        0.0000000000	        0.0000000000	        0.0000000000	        0.0000000000	        0.0000000000	        0.0000000000	
        0.1440763348	      -45.1422280742	      664.5854347753	      -16.3718592421	        0.2277688625	        0.0000000000	        0.0410918096	       -0.0329161587	        0.0178049726	        0.0029947912	        0.0000000000	        0.0000000000	        0.0000000000	        0.0000000000	        0.0000000000	        0.0000000000	        0.0000000000	        0.0000000000	        0.0000000000	
        0.1551591298	      -37.3929888011	      639.7703059433	      -16.8229984198	        0.2322234117	        0.0000000000	        0.0411149707	       -0.0220595661	        0.0112322977	        0.0020701780	        0.0000000000	        0.0000000000	        0.0000000000	        0.0000000000	        0.0000000000	        0.0000000000	        0.0000000000	        0.0000000000	        0.0000000000	
        0.1662419248	      -30.8514081455	      619.3196705160	      -17.4239435114	        0.2367488345	        0.0000000000	        0.0411594492	       -0.0151332498	        0.0073168330	        0.0014540615	        0.0000000000	        0.0000000000	        0.0000000000	        0.0000000000	        0.0000000000	        0.0000000000	        0.0000000000	        0.0000000000	        0.0000000000	
        0.1773247198	      -25.3361885644	      603.5129441343	      -17.8626904943	        0.2415901611	        0.0000000000	        0.0412053024	       -0.0133260257	        0.0061635717	        0.0012997254	        0.0000000000	        0.0000000000	        0.0000000000	        0.0000000000	        0.0000000000	        0.0000000000	        0.0000000000	        0.0000000000	        0.0000000000	
        0.1884075148	      -21.3499511917	      592.5638317297	      -18.0297469214	        0.2467905151	        0.0000000000	        0.0412249345	       -0.0156541177	        0.0069647043	        0.0015418478	        0.0000000000	        0.0000000000	        0.0000000000	        0.0000000000	        0.0000000000	        0.0000000000	        0.0000000000	        0.0000000000	        0.0000000000	
        0.1994903098	      -18.1428684627	      585.6591523645	      -18.0050628621	        0.2523372840	        0.0000000000	        0.0412000075	       -0.0237197414	        0.0101982304	        0.0023388013	        0.0000000000	        0.0000000000	        0.0000000000	        0.0000000000	        0.0000000000	        0.0000000000	        0.0000000000	        0.0000000000	        0.0000000000	
        0.2105731048	      -16.5677871029	      582.0402734778	      -17.9887825513	        0.2581263503	        0.0000000000	        0.0411216881	       -0.0433801616	        0.0180994166	        0.0042545983	        0.0000000000	        0.0000000000	        0.0000000000	        0.0000000000	        0.0000000000	        0.0000000000	        0.0000000000	        0.0000000000	        0.0000000000	
